<svg width="64" height="64" viewBox="0 0 64 64" fill="none" xmlns="http://www.w3.org/2000/svg">
<path d="M56 32.0007C56 44.5713 56 50.8567 52.4853 54.7607C48.9707 58.6647 43.312 58.6673 32 58.6673C20.688 58.6673 15.0293 58.6673 11.5147 54.7607C8 50.8593 8 44.5713 8 32.0007C8 19.43 8 13.1447 11.5147 9.23798C15.0293 5.33132 20.688 5.33398 32 5.33398C43.312 5.33398 48.9707 5.33398 52.4853 9.23798C54.8213 11.8353 55.6053 15.486 55.8667 21.334" stroke="#14CCC3" stroke-width="4" stroke-linecap="round"/>
<path d="M18.667 21.3333C18.667 20.0933 18.667 19.4747 18.803 18.9653C18.9848 18.2876 19.3417 17.6697 19.8379 17.1736C20.334 16.6774 20.952 16.3205 21.6297 16.1387C22.1443 16 22.763 16 24.0003 16H40.0003C41.2403 16 41.859 16 42.3683 16.136C43.046 16.3178 43.6639 16.6748 44.1601 17.1709C44.6562 17.6671 45.0131 18.285 45.195 18.9627C45.3337 19.4773 45.3337 20.096 45.3337 21.3333C45.3337 22.5707 45.3337 23.192 45.1977 23.7013C45.0158 24.379 44.6589 24.9969 44.1628 25.4931C43.6666 25.9892 43.0487 26.3462 42.371 26.528C41.859 26.6667 41.2377 26.6667 40.0003 26.6667H24.0003C22.7603 26.6667 22.1417 26.6667 21.6323 26.5307C20.9546 26.3488 20.3367 25.9919 19.8406 25.4958C19.3444 24.9996 18.9875 24.3817 18.8057 23.704C18.667 23.1893 18.667 22.5707 18.667 21.3333Z" stroke="#14CCC3" stroke-width="4"/>
<path d="M21.3337 37.3333C22.8064 37.3333 24.0003 36.1394 24.0003 34.6667C24.0003 33.1939 22.8064 32 21.3337 32C19.8609 32 18.667 33.1939 18.667 34.6667C18.667 36.1394 19.8609 37.3333 21.3337 37.3333Z" fill="#14CCC3"/>
<path d="M21.3337 48.0013C22.8064 48.0013 24.0003 46.8074 24.0003 45.3346C24.0003 43.8619 22.8064 42.668 21.3337 42.668C19.8609 42.668 18.667 43.8619 18.667 45.3346C18.667 46.8074 19.8609 48.0013 21.3337 48.0013Z" fill="#14CCC3"/>
<path d="M31.9997 37.3333C33.4724 37.3333 34.6663 36.1394 34.6663 34.6667C34.6663 33.1939 33.4724 32 31.9997 32C30.5269 32 29.333 33.1939 29.333 34.6667C29.333 36.1394 30.5269 37.3333 31.9997 37.3333Z" fill="#14CCC3"/>
<path d="M31.9997 48.0013C33.4724 48.0013 34.6663 46.8074 34.6663 45.3346C34.6663 43.8619 33.4724 42.668 31.9997 42.668C30.5269 42.668 29.333 43.8619 29.333 45.3346C29.333 46.8074 30.5269 48.0013 31.9997 48.0013Z" fill="#14CCC3"/>
<path d="M42.6667 37.3333C44.1394 37.3333 45.3333 36.1394 45.3333 34.6667C45.3333 33.1939 44.1394 32 42.6667 32C41.1939 32 40 33.1939 40 34.6667C40 36.1394 41.1939 37.3333 42.6667 37.3333Z" fill="#14CCC3"/>
<path d="M42.6667 48.0013C44.1394 48.0013 45.3333 46.8074 45.3333 45.3346C45.3333 43.8619 44.1394 42.668 42.6667 42.668C41.1939 42.668 40 43.8619 40 45.3346C40 46.8074 41.1939 48.0013 42.6667 48.0013Z" fill="#14CCC3"/>
</svg>
