<svg width="52" height="52" viewBox="0 0 52 52" fill="none" xmlns="http://www.w3.org/2000/svg">
<path d="M32.4004 48.4004H48.4004V43.0664H32.4004V48.4004ZM32.4004 39.8662H48.4004V34.5332H32.4004V39.8662ZM3.59961 31.333H48.4004V26H3.59961V31.333ZM32.4004 5.2002C32.4004 4.68017 32.2748 4.39611 32.1689 4.2373C32.0564 4.06852 31.8947 3.93614 31.6846 3.83105C31.4681 3.72284 31.2323 3.66047 31.0371 3.62793C30.9433 3.61229 30.8682 3.60575 30.8232 3.60254C30.8012 3.60097 30.7868 3.59976 30.7822 3.59961H11.5996C11.0801 3.59967 10.7965 3.72524 10.6377 3.83105C10.4689 3.94356 10.3365 4.10535 10.2314 4.31543C10.1232 4.53183 10.0609 4.76771 10.0283 4.96289C10.0127 5.05671 10.0052 5.13179 10.002 5.17676C10.0004 5.19881 10.0002 5.21322 10 5.21777V14.7998C10 15.3198 10.1256 15.6039 10.2314 15.7627C10.344 15.9314 10.5057 16.0639 10.7158 16.1689C10.9322 16.2771 11.1681 16.3395 11.3633 16.3721C11.4567 16.3876 11.5312 16.3942 11.5762 16.3975C11.5981 16.399 11.6124 16.4002 11.6172 16.4004H30.7998C31.3198 16.4004 31.6039 16.2748 31.7627 16.1689C31.9315 16.0564 32.0639 15.8947 32.1689 15.6846C32.2772 15.4681 32.3395 15.2323 32.3721 15.0371C32.3877 14.9433 32.3942 14.8682 32.3975 14.8232C32.399 14.8012 32.4002 14.7868 32.4004 14.7822V5.2002ZM35.5996 14.7998H34C35.5036 14.7998 35.5942 14.801 35.5996 14.8018V14.835C35.5994 14.8499 35.5993 14.8685 35.5986 14.8896C35.5972 14.9319 35.5945 14.9867 35.5898 15.0518C35.5806 15.1818 35.5627 15.3574 35.5283 15.5635C35.4608 15.9682 35.3228 16.532 35.0312 17.1152C34.7363 17.705 34.2683 18.3436 33.5371 18.8311C32.7959 19.3251 31.8797 19.5996 30.7998 19.5996H22.7998V22.7998H48.9336C49.5523 22.7999 50.1486 23.0155 50.623 23.4043L50.8193 23.5811L50.9961 23.7764C51.385 24.2509 51.5996 24.8479 51.5996 25.4668V48.9336C51.5995 49.6407 51.3194 50.3193 50.8193 50.8193C50.3193 51.3194 49.6407 51.5995 48.9336 51.5996H31.8662C31.1593 51.5995 30.4814 51.3191 29.9814 50.8193C29.4814 50.3193 29.2003 49.6407 29.2002 48.9336V34.5332H3.59961V50C3.59961 50.8837 2.88366 51.5996 2 51.5996C1.11634 51.5996 0.400391 50.8837 0.400391 50V25.4668C0.400391 24.7596 0.680688 24.0811 1.18066 23.5811L1.37695 23.4043C1.85141 23.0155 2.44766 22.7999 3.06641 22.7998H19.5996V19.5996H11.5996V18C11.5996 19.4991 11.5994 19.5936 11.5986 19.5996H11.5654C11.5505 19.5994 11.5319 19.5993 11.5107 19.5986C11.4685 19.5972 11.4139 19.5945 11.3486 19.5898C11.2186 19.5806 11.0431 19.5627 10.8369 19.5283C10.4321 19.4609 9.86771 19.323 9.28418 19.0312C8.69442 18.7363 8.05577 18.2682 7.56836 17.5371C7.07442 16.796 6.7998 15.8796 6.7998 14.7998V5.2002H8.40039C6.80039 5.2002 6.7998 5.19905 6.7998 5.19824V5.18457C6.79985 5.17884 6.80066 5.17232 6.80078 5.16504C6.80102 5.15012 6.80105 5.13153 6.80176 5.11035C6.80317 5.0681 6.8059 5.01332 6.81055 4.94824C6.81984 4.81823 6.83773 4.64256 6.87207 4.43652C6.93956 4.03181 7.07754 3.46803 7.36914 2.88477C7.66401 2.29502 8.13126 1.65638 8.8623 1.16895C9.60341 0.674877 10.5198 0.400457 11.5996 0.400391H30.7998V1.74609C30.7999 0.485787 30.801 0.405509 30.8018 0.400391H30.835C30.8499 0.400631 30.8685 0.400661 30.8896 0.401367C30.9319 0.40278 30.9867 0.405507 31.0518 0.410156C31.1818 0.419449 31.3574 0.437337 31.5635 0.47168C31.9682 0.539157 32.532 0.677184 33.1152 0.96875C33.705 1.26365 34.3436 1.73171 34.8311 2.46289C35.3251 3.20405 35.5996 4.12031 35.5996 5.2002V14.7998Z" fill="#14CCC3"/>
</svg>
