<svg width="64" height="64" viewBox="0 0 64 64" fill="none" xmlns="http://www.w3.org/2000/svg">
<path d="M29.0031 18.4412C29.0031 17.046 29.608 15.9149 31.0032 15.9149C32.3984 15.9149 33.0031 17.046 33.0031 18.4412V30.0039L36.5031 33.5039C37.4892 34.4905 37.5655 35.6618 36.5793 36.6483C35.5928 37.6348 34.4897 37.4905 33.5031 36.5039L29.5031 33.0039C29.0294 32.5302 29.0031 31.6739 29.0031 31.0039V30.0039V18.4412Z" fill="#14CCC3"/>
<path fill-rule="evenodd" clip-rule="evenodd" d="M57.7502 25.3847C55.7518 11.1651 42.6044 1.25782 28.3847 3.25627C14.1651 5.25471 4.25782 18.4021 6.25627 32.6217C8.25471 46.8414 21.4021 56.7487 35.6217 54.7502C35.6217 54.7502 37.6023 54.4719 37.3239 52.4913C37.0456 50.5108 35.065 50.7891 35.065 50.7891C23.033 52.4801 11.9083 44.0971 10.2173 32.065C8.52635 20.033 16.9094 8.90833 28.9414 7.21734C40.9734 5.52635 52.0981 13.9094 53.7891 25.9414C53.7891 25.9414 54.0675 27.922 56.048 27.6436C58.0286 27.3653 57.7502 25.3847 57.7502 25.3847Z" fill="#14CCC3"/>
<path d="M47.59 58.065V55.6627C45.5667 55.229 43.5731 54.2223 42.2424 52.5797L42.0764 52.3668L41.9621 52.1968C41.4384 51.3287 41.6474 50.1876 42.4758 49.566C43.3592 48.9032 44.6126 49.082 45.2756 49.9654C46.084 51.0427 47.7955 51.8412 49.6623 51.9088C50.8717 51.9525 51.885 51.674 52.5344 51.2193C53.1032 50.8209 53.5031 50.2243 53.5031 49.1939C53.5031 48.7758 53.4115 48.5365 53.3195 48.3824C53.2206 48.2168 53.0498 48.0326 52.7355 47.8326C52.0264 47.3812 50.9966 47.0807 49.5568 46.688C48.2865 46.3416 46.6058 45.9024 45.2824 45.0601C44.5809 44.6136 43.9052 44.0126 43.4113 43.1851C42.9105 42.346 42.6623 41.384 42.6623 40.3238C42.6623 38.1804 43.4711 36.455 44.9435 35.3394C45.7432 34.7336 46.6575 34.3704 47.59 34.1783V32.44C47.59 31.3354 48.4855 30.44 49.59 30.44C50.6944 30.4403 51.59 31.3356 51.59 32.44V34.2359C53.6028 34.6518 55.5807 35.6027 56.9172 36.939C57.6982 37.7201 57.6982 38.9871 56.9172 39.7681C56.1848 40.5002 55.0259 40.5458 54.2404 39.9048L54.0891 39.7681L53.9035 39.5953C52.9241 38.7404 51.1844 38.0486 49.5344 38.0035C48.5122 37.9763 47.783 38.2063 47.3586 38.5279C47.0174 38.7865 46.6623 39.2559 46.6623 40.3238C46.6623 40.742 46.7539 40.9812 46.8459 41.1353C46.9448 41.301 47.1153 41.4859 47.4299 41.6861C48.1391 42.1374 49.1697 42.4369 50.6096 42.8297C51.8798 43.1761 53.5598 43.6155 54.883 44.4576C55.5846 44.9041 56.2611 45.505 56.7551 46.3326C57.2558 47.1716 57.5031 48.1339 57.5031 49.1939C57.5031 51.5374 56.4602 53.3534 54.8293 54.4957C53.8609 55.1739 52.7388 55.58 51.59 55.774V58.065C51.5898 59.1692 50.6942 60.0647 49.59 60.065C48.4856 60.065 47.5903 59.1694 47.59 58.065Z" fill="#14CCC3"/>
</svg>
